<svg xmlns="http://www.w3.org/2000/svg" viewBox="-8 -8 328 64" width="984" height="192">
  <rect x="-8" y="-8" width="328" height="64" fill="#1E1E1E"/>
  
  <g fill="#55FF55">
    
    <g transform="translate(0, 0)">
      <rect x="4" y="0" width="12" height="6"/>
      <rect x="0" y="6" width="4" height="6"/> <rect x="16" y="6" width="4" height="6"/>
      <rect x="0" y="12" width="4" height="6"/> <rect x="12" y="12" width="8" height="6"/>
      <rect x="0" y="18" width="4" height="6"/> <rect x="8" y="18" width="4" height="6"/> <rect x="16" y="18" width="4" height="6"/>
      <rect x="0" y="24" width="8" height="6"/> <rect x="16" y="24" width="4" height="6"/>
      <rect x="0" y="30" width="4" height="6"/> <rect x="16" y="30" width="4" height="6"/>
      <rect x="4" y="36" width="12" height="6"/>
    </g>

    <g transform="translate(32, 0)">
      <rect x="8" y="0" width="4" height="6"/>
      <rect x="4" y="6" width="8" height="6"/>
      <rect x="0" y="12" width="4" height="6"/> <rect x="8" y="12" width="4" height="6"/>
      <rect x="8" y="18" width="4" height="6"/>
      <rect x="8" y="24" width="4" height="6"/>
      <rect x="8" y="30" width="4" height="6"/>
      <rect x="0" y="36" width="20" height="6"/>
    </g>

    <g transform="translate(64, 0)">
      <rect x="4" y="0" width="12" height="6"/>
      <rect x="0" y="6" width="4" height="6"/> <rect x="16" y="6" width="4" height="6"/>
      <rect x="16" y="12" width="4" height="6"/>
      <rect x="12" y="18" width="4" height="6"/>
      <rect x="8" y="24" width="4" height="6"/>
      <rect x="4" y="30" width="4" height="6"/>
      <rect x="0" y="36" width="20" height="6"/>
    </g>

    <g transform="translate(96, 0)">
      <rect x="4" y="0" width="12" height="6"/>
      <rect x="0" y="6" width="4" height="6"/> <rect x="16" y="6" width="4" height="6"/>
      <rect x="16" y="12" width="4" height="6"/>
      <rect x="8" y="18" width="8" height="6"/>
      <rect x="16" y="24" width="4" height="6"/>
      <rect x="0" y="30" width="4" height="6"/> <rect x="16" y="30" width="4" height="6"/>
      <rect x="4" y="36" width="12" height="6"/>
    </g>

    <g transform="translate(128, 0)">
      <rect x="12" y="0" width="4" height="6"/>
      <rect x="8" y="6" width="8" height="6"/>
      <rect x="4" y="12" width="4" height="6"/> <rect x="12" y="12" width="4" height="6"/>
      <rect x="0" y="18" width="4" height="6"/> <rect x="12" y="18" width="4" height="6"/>
      <rect x="0" y="24" width="20" height="6"/>
      <rect x="12" y="30" width="4" height="6"/>
      <rect x="12" y="36" width="4" height="6"/>
    </g>

    <g transform="translate(160, 0)">
      <rect x="0" y="0" width="20" height="6"/>
      <rect x="0" y="6" width="4" height="6"/>
      <rect x="0" y="12" width="16" height="6"/>
      <rect x="16" y="18" width="4" height="6"/>
      <rect x="16" y="24" width="4" height="6"/>
      <rect x="0" y="30" width="4" height="6"/> <rect x="16" y="30" width="4" height="6"/>
      <rect x="4" y="36" width="12" height="6"/>
    </g>

    <g transform="translate(192, 0)">
      <rect x="4" y="0" width="12" height="6"/>
      <rect x="0" y="6" width="4" height="6"/>
      <rect x="0" y="12" width="4" height="6"/>
      <rect x="0" y="18" width="16" height="6"/>
      <rect x="0" y="24" width="4" height="6"/> <rect x="16" y="24" width="4" height="6"/>
      <rect x="0" y="30" width="4" height="6"/> <rect x="16" y="30" width="4" height="6"/>
      <rect x="4" y="36" width="12" height="6"/>
    </g>

    <g transform="translate(224, 0)">
      <rect x="0" y="0" width="20" height="6"/>
      <rect x="16" y="6" width="4" height="6"/>
      <rect x="12" y="12" width="4" height="6"/>
      <rect x="8" y="18" width="4" height="6"/>
      <rect x="4" y="24" width="4" height="6"/>
      <rect x="4" y="30" width="4" height="6"/>
      <rect x="4" y="36" width="4" height="6"/>
    </g>

    <g transform="translate(256, 0)">
      <rect x="4" y="0" width="12" height="6"/>
      <rect x="0" y="6" width="4" height="6"/> <rect x="16" y="6" width="4" height="6"/>
      <rect x="0" y="12" width="4" height="6"/> <rect x="16" y="12" width="4" height="6"/>
      <rect x="4" y="18" width="12" height="6"/>
      <rect x="0" y="24" width="4" height="6"/> <rect x="16" y="24" width="4" height="6"/>
      <rect x="0" y="30" width="4" height="6"/> <rect x="16" y="30" width="4" height="6"/>
      <rect x="4" y="36" width="12" height="6"/>
    </g>

    <g transform="translate(288, 0)">
      <rect x="4" y="0" width="12" height="6"/>
      <rect x="0" y="6" width="4" height="6"/> <rect x="16" y="6" width="4" height="6"/>
      <rect x="0" y="12" width="4" height="6"/> <rect x="16" y="12" width="4" height="6"/>
      <rect x="4" y="18" width="16" height="6"/>
      <rect x="16" y="24" width="4" height="6"/>
      <rect x="0" y="30" width="4" height="6"/> <rect x="16" y="30" width="4" height="6"/>
      <rect x="4" y="36" width="12" height="6"/>
    </g>
    
  </g>
</svg>
